<svg xmlns="http://www.w3.org/2000/svg" width="146" height="17" fill="none"><path fill="#6A6C6A" d="M21.631 8.149a5.93 5.93 0 0 1-5.931 5.924H7.327a5.93 5.93 0 0 1-5.931-5.924 5.927 5.927 0 0 1 5.931-5.924H15.7a5.927 5.927 0 0 1 5.931 5.924M7.327.831C3.28.831 0 4.107 0 8.149s3.28 7.318 7.327 7.318H15.7c4.047 0 7.327-3.277 7.327-7.318 0-4.042-3.28-7.318-7.327-7.318Z"/><path fill="#6A6C6A" d="M23.027 8.149c0 4.041-3.28 7.318-7.327 7.318-4.046 0-7.327-3.277-7.327-7.318 0-4.042 3.281-7.318 7.327-7.318 4.047 0 7.327 3.276 7.327 7.318m4.054 8.504L32.338 0h4.087l5.257 16.653H38.81L34.04 1.712h.625l-4.712 14.941Zm2.929-3.608v-2.602h8.754v2.602zm27.393 3.608V9.067q0-1.284-.637-2.001-.636-.729-1.725-.729a2.33 2.33 0 0 0-1.204.313q-.533.3-.845.902-.313.59-.313 1.411l-1.239-.729q-.011-1.296.579-2.278a4.23 4.23 0 0 1 1.621-1.55q1.02-.555 2.27-.555 2.072 0 3.172 1.249 1.112 1.238 1.112 3.261v8.292Zm-15.04 0V4.163h2.466v3.874h.347v8.616Zm7.537 0V9.101q0-1.306-.637-2.035-.636-.729-1.736-.729-1.066 0-1.714.729-.637.729-.637 1.897l-1.25-.833q0-1.215.602-2.186a4.3 4.3 0 0 1 1.621-1.526q1.03-.567 2.304-.567 1.401 0 2.339.601a3.6 3.6 0 0 1 1.412 1.619q.475 1.018.475 2.302v8.28ZM66.653 17q-2.316 0-3.763-1.041t-1.76-2.926l2.848-.439q.22.925.973 1.457.752.532 1.898.532 1.008 0 1.552-.393.556-.405.556-1.099 0-.428-.209-.682-.196-.266-.88-.509t-2.095-.613q-1.575-.417-2.501-.89-.927-.486-1.332-1.145-.405-.66-.405-1.596 0-1.168.614-2.036.613-.867 1.713-1.329 1.1-.475 2.594-.475 1.459 0 2.582.451 1.134.452 1.829 1.284t.857 1.954l-2.848.509a1.8 1.8 0 0 0-.73-1.26q-.613-.463-1.644-.521-.984-.057-1.586.301-.602.347-.602.983 0 .358.243.613t.973.509q.74.254 2.2.624 1.493.383 2.385.879.903.486 1.297 1.168.405.682.405 1.654 0 1.885-1.378 2.96Q69.073 17 66.653 17m13.64-.347a11.4 11.4 0 0 1-2.432.197q-1.18-.023-2.119-.428a2.94 2.94 0 0 1-1.424-1.307 3.7 3.7 0 0 1-.451-1.654 71 71 0 0 1-.024-1.908V.694h2.779v10.697q0 .752.012 1.319.022.566.243.925.417.694 1.332.775.914.08 2.084-.093ZM71.574 6.349V4.163h8.719v2.186zM86.644 17q-1.899 0-3.334-.821a5.86 5.86 0 0 1-2.247-2.278q-.799-1.458-.799-3.354 0-2.047.788-3.55.787-1.515 2.188-2.348t3.242-.833q1.946 0 3.3.914 1.366.902 2.026 2.556t.498 3.897h-2.767v-1.018q-.012-2.035-.718-2.972-.707-.937-2.223-.937-1.714 0-2.547 1.064-.834 1.053-.834 3.088 0 1.897.834 2.938.833 1.04 2.431 1.04 1.03 0 1.772-.451.753-.462 1.158-1.329l2.755.832q-.717 1.689-2.223 2.625a6.1 6.1 0 0 1-3.3.937m-4.307-5.817V9.078h8.603v2.105Zm11.163 5.47V4.163h2.467v3.042l-.301-.393c.148-.406.355-.788.613-1.134a3.4 3.4 0 0 1 .938-.855 3.9 3.9 0 0 1 1.019-.486 4.6 4.6 0 0 1 1.158-.22 4.7 4.7 0 0 1 1.146.046v2.602q-.556-.162-1.285-.104a2.96 2.96 0 0 0-1.297.405 2.9 2.9 0 0 0-.949.798q-.36.486-.533 1.11a5 5 0 0 0-.174 1.33v6.349Zm12.648.347q-1.725 0-3.011-.867-1.285-.868-1.991-2.36t-.707-3.365q0-1.896.707-3.377.717-1.491 2.026-2.348 1.308-.867 3.08-.867 1.783 0 2.987.867 1.216.857 1.841 2.348.626 1.492.626 3.377 0 1.862-.626 3.365-.625 1.492-1.864 2.36t-3.068.867m.428-2.498q1.123 0 1.806-.509.695-.52 1.008-1.445.324-.925.324-2.14 0-1.226-.324-2.139-.314-.925-.984-1.434-.672-.52-1.737-.521-1.124 0-1.853.555-.729.544-1.077 1.481-.347.925-.347 2.058 0 1.145.336 2.082.347.925 1.053 1.469.707.543 1.795.543m3.138 2.151V7.887h-.347V0h2.813v16.653Zm33.482 0V9.067q0-1.284-.637-2.001-.637-.729-1.726-.729a2.33 2.33 0 0 0-1.204.313q-.533.3-.845.902-.312.59-.313 1.411l-1.239-.729q-.01-1.296.579-2.278a4.23 4.23 0 0 1 1.621-1.55q1.02-.555 2.27-.555 2.073 0 3.172 1.249 1.112 1.238 1.112 3.261v8.292Zm-15.041 0V4.163h2.466v3.874h.347v8.616Zm7.537 0V9.101q0-1.306-.636-2.035-.638-.729-1.737-.729-1.065 0-1.714.729-.637.729-.637 1.897l-1.25-.833q0-1.215.602-2.186a4.3 4.3 0 0 1 1.621-1.526q1.03-.567 2.304-.567 1.401 0 2.339.601a3.6 3.6 0 0 1 1.413 1.619q.474 1.018.474 2.302v8.28ZM118.673 17q-1.354 0-2.293-.509-.938-.52-1.424-1.376a3.8 3.8 0 0 1-.475-1.885q0-.902.301-1.619.301-.729.927-1.249.625-.532 1.621-.868a16 16 0 0 1 1.76-.439q1.095-.209 2.2-.358 1.193-.174 2.489-.371l-.996.567q.012-1.295-.579-1.908-.59-.613-1.991-.613-.846 0-1.633.393t-1.1 1.353l-2.547-.798q.463-1.584 1.76-2.544 1.308-.96 3.52-.96 1.667 0 2.929.544a3.64 3.64 0 0 1 1.888 1.781 3.8 3.8 0 0 1 .405 1.353q.069.682.069 1.492v7.667h-2.443v-2.706l.405.439q-.845 1.353-1.979 1.989-1.124.625-2.814.625m.556-2.22q.95 0 1.621-.336.671-.335 1.065-.821.405-.486.544-.913.22-.533.243-1.215.035-.693.035-1.122l.857.255q-1.262.197-2.165.347-.904.15-1.552.289a10 10 0 0 0-1.146.289 3.6 3.6 0 0 0-.822.405 1.8 1.8 0 0 0-.521.532 1.4 1.4 0 0 0-.174.705q0 .463.232.821.231.348.671.555.452.209 1.112.209"/></svg>