<svg xmlns="http://www.w3.org/2000/svg" width="113" height="23" fill="none"><path fill="#6A6C6A" d="M3.138 2.749C4.67 1.247 6.75.369 8.858.26c.721 0 1.445.004 2.166-.002-.037.795 0 1.592-.022 2.387a8.9 8.9 0 0 1-1.817 4.907 8.9 8.9 0 0 1-5.813 3.458c-.992.165-1.999.06-2.999.089.018-.875-.036-1.752.031-2.625a9.17 9.17 0 0 1 2.734-5.725M11.693.258c.773.009 1.546-.005 2.322.004 1.93.14 3.835.902 5.288 2.222a9.12 9.12 0 0 1 2.984 5.596c.123 1.002.045 2.015.093 3.021q-1.013-.005-2.026 0c-1.662-.047-3.295-.599-4.686-1.53-.642-.472-1.3-.95-1.781-1.605a8.9 8.9 0 0 1-2.043-4.335c-.204-1.113-.121-2.249-.152-3.373ZM.375 11.738c.687.04 1.376-.034 2.06.044 2.932.065 5.776 1.757 7.295 4.333.871 1.443 1.339 3.153 1.278 4.852-.002.556.007 1.111-.008 1.665-1.088-.033-2.186.058-3.263-.158-2.392-.414-4.591-1.877-5.915-3.965C.819 16.99.318 15.136.371 13.303q-.001-.784.004-1.565m18.344.236c1.179-.27 2.394-.225 3.592-.225l.052.053c-.026 1.165.063 2.343-.164 3.494-.479 2.583-2.143 4.889-4.381 6.156a9.05 9.05 0 0 1-4.585 1.171c-.509.003-1.02-.008-1.529.007 0-.964-.039-1.933.067-2.892.247-2.322 1.469-4.484 3.226-5.945a9 9 0 0 1 3.722-1.819m12.538 6.346q0 .588-.396.995a1.26 1.26 0 0 1-.946.384q-.55 0-.924-.384a1.42 1.42 0 0 1-.374-.995V4.344q0-.588.374-.972.396-.408.968-.407c.572.001.69.135.924.407q.375.384.374.973zM41.856 7.601q.572 0 .946.407.375.384.374.972v5.744q0 2.397-1.298 3.799t-3.741 1.402-3.741-1.402q-1.276-1.402-1.276-3.799V8.98q0-.588.374-.973.375-.406.946-.406.572 0 .947.407.374.384.374.972v5.744q0 1.38.594 2.058.594.656 1.782.656 1.21 0 1.805-.656.594-.68.594-2.058V8.98q0-.588.374-.973a1.23 1.23 0 0 1 .946-.406m9.262-.227q1.76 0 2.597.883.836.86 1.1 2.238l-.374-.203.176-.362q.264-.52.814-1.108a4.7 4.7 0 0 1 1.32-1.018 3.64 3.64 0 0 1 1.761-.43q1.584 0 2.398.702.837.7 1.145 1.877.308 1.154.308 2.577v5.79q0 .588-.374.995-.374.384-.947.384-.571 0-.946-.384a1.42 1.42 0 0 1-.374-.995v-5.789q0-.747-.176-1.334a1.85 1.85 0 0 0-.638-.973q-.462-.362-1.32-.362-.836 0-1.431.362c-.384.23-.697.567-.902.973a3 3 0 0 0-.286 1.334v5.789q0 .589-.374.995a1.26 1.26 0 0 1-.946.385 1.26 1.26 0 0 1-.946-.385 1.4 1.4 0 0 1-.374-.995v-5.789q0-.747-.177-1.334a1.85 1.85 0 0 0-.638-.973q-.462-.362-1.32-.362-.836 0-1.43.362a2.4 2.4 0 0 0-.903.973q-.285.588-.285 1.334v5.789q0 .589-.375.995a1.26 1.26 0 0 1-.946.385q-.572 0-.946-.385a1.4 1.4 0 0 1-.374-.995V8.981q0-.59.374-.973a1.23 1.23 0 0 1 .946-.407q.573 0 .946.407.375.385.375.973v.972l-.331-.068q.199-.384.55-.814c.25-.316.539-.597.859-.837q.505-.385 1.122-.61a3.6 3.6 0 0 1 1.342-.249ZM66.607 18.32q0 .588-.374.995a1.26 1.26 0 0 1-.947.384q-.571 0-.946-.384a1.42 1.42 0 0 1-.374-.995V8.98q0-.588.374-.973.375-.406.946-.406.573 0 .947.407.374.384.374.972zM65.264 6.131q-.747 0-1.056-.249Q63.9 5.633 63.9 5v-.43q0-.655.33-.882.353-.249 1.056-.249.771 0 1.079.249t.308.883V5q0 .656-.33.905-.33.226-1.079.226m9.25 1.243q1.629 0 2.464.702.859.7 1.167 1.877.33 1.153.33 2.577v5.79q0 .588-.374.995-.374.384-.947.384-.571 0-.946-.384a1.42 1.42 0 0 1-.374-.995v-5.789q0-.746-.198-1.334a1.8 1.8 0 0 0-.66-.973q-.484-.362-1.386-.362-.88 0-1.497.362a2.54 2.54 0 0 0-.924.973 2.84 2.84 0 0 0-.308 1.334v5.789q0 .589-.374.995a1.26 1.26 0 0 1-.946.385 1.26 1.26 0 0 1-.946-.385 1.4 1.4 0 0 1-.375-.995V8.981q0-.59.375-.973.373-.407.946-.407.572 0 .946.407.374.385.374.973v.972l-.33-.068q.198-.384.572-.814.375-.453.88-.837.506-.385 1.145-.61a3.8 3.8 0 0 1 1.386-.249Zm17.025 6.287q0 1.855-.814 3.279a5.76 5.76 0 0 1-2.156 2.194q-1.343.792-3.015.792t-3.037-.792a6 6 0 0 1-2.156-2.194q-.792-1.424-.792-3.279t.792-3.256q.814-1.425 2.156-2.216 1.365-.815 3.037-.815c1.672 0 2.12.272 3.015.815a5.7 5.7 0 0 1 2.156 2.216q.814 1.402.814 3.256m-2.64 0q0-1.153-.463-1.99a3.3 3.3 0 0 0-1.21-1.334 3.05 3.05 0 0 0-1.672-.475 3.16 3.16 0 0 0-1.694.475q-.749.475-1.211 1.334-.44.838-.44 1.99 0 1.131.44 1.99.462.838 1.211 1.312a3.16 3.16 0 0 0 1.694.475q.924 0 1.672-.475a3.3 3.3 0 0 0 1.21-1.312q.463-.86.463-1.99m12.482-6.06q.572 0 .946.407.374.384.374.972v5.744q0 2.397-1.298 3.799t-3.741 1.402-3.741-1.402q-1.275-1.402-1.276-3.799V8.98q0-.588.374-.973.375-.406.946-.406.573 0 .947.407.374.384.374.972v5.744q0 1.38.594 2.058.594.656 1.782.656 1.211 0 1.804-.656.595-.68.595-2.058V8.98q0-.588.374-.973a1.23 1.23 0 0 1 .946-.406m2.397 10.221q-.22-.316-.198-.814t.572-.859a1.1 1.1 0 0 1 .748-.181q.396.023.77.407.639.657 1.342 1.018.705.362 1.761.362.33-.022.726-.091.396-.09.682-.362.308-.294.308-.882 0-.497-.33-.791t-.88-.498q-.585-.222-1.188-.384a37 37 0 0 1-1.409-.453 6 6 0 0 1-1.298-.633 3.2 3.2 0 0 1-.968-1.063q-.374-.656-.374-1.65 0-1.131.616-1.923a4.06 4.06 0 0 1 1.584-1.221 5.2 5.2 0 0 1 2.068-.43q.683 0 1.431.181.749.159 1.43.543.683.363 1.144.973.243.339.287.814t-.419.859a1.08 1.08 0 0 1-.77.249 1.2 1.2 0 0 1-.726-.317 2.6 2.6 0 0 0-1.012-.791q-.617-.294-1.431-.294a3.3 3.3 0 0 0-.726.09 1.27 1.27 0 0 0-.66.339q-.285.25-.286.815 0 .52.33.836.331.294.881.498a41 41 0 0 0 1.21.362q.66.181 1.342.429.682.25 1.254.656.573.408.925 1.063.351.633.352 1.628 0 1.153-.661 1.968-.66.814-1.65 1.244a5.3 5.3 0 0 1-2.024.407 7.8 7.8 0 0 1-2.597-.453q-1.298-.474-2.156-1.651"/></svg>