<svg xmlns="http://www.w3.org/2000/svg" width="95" height="25" fill="none"><path fill="#6A6C6A" d="M29.417 16.91V7.719h2.641l2.454 5.271a37 37 0 0 1 .534 1.284q.16.375.293.696h.08q.12-.28.267-.642c.147-.362.196-.477.294-.709l.266-.602 2.455-5.298h2.601v9.191h-1.734v-6.301l.027-.589a23 23 0 0 1 .026-.508h-.107a9 9 0 0 1-.173.468 14 14 0 0 1-.227.535 9 9 0 0 1-.2.468L36.18 16.91h-1.694l-2.748-5.927q-.12-.254-.24-.521a19 19 0 0 1-.214-.522 7 7 0 0 0-.146-.428h-.107q.013.188.013.468.014.28.014.589.013.294.013.575v5.766Zm14.615 0V7.719h1.721v9.191Zm4.455 0V7.719h1.721v7.666h5.776v1.525Zm8.314 0 4.628-9.191h1.961l4.628 9.191h-1.894l-.987-1.98h-5.575l-.987 1.98Zm3.454-3.398h4.189L63.23 11.01a16 16 0 0 0-.2-.415q-.12-.28-.254-.575-.106-.264-.226-.522a2 2 0 0 0-.147-.28h-.107l-.28.628-.307.669q-.115.256-.24.508Zm9.517 3.398V7.719h1.641l5.402 5.365q.16.147.373.388.23.231.454.468.24.24.4.428h.107a37 37 0 0 1-.04-1.351V7.719h1.654v9.191h-1.587l-5.416-5.418a28 28 0 0 1-.694-.723l-.573-.615h-.094q.014.2.014.629.013.428.013.923v5.204Zm18.168.16q-1.8 0-3.107-.548-1.308-.549-2.015-1.606-.706-1.07-.706-2.595 0-1.552.706-2.595.707-1.057 2.015-1.606 1.307-.561 3.107-.561 1.814 0 3.122.562 1.32.548 2.014 1.605.707 1.043.707 2.595 0 1.526-.707 2.595-.694 1.057-2.014 1.606-1.308.549-3.122.548m.014-1.458q.867 0 1.601-.187a3.8 3.8 0 0 0 1.293-.575c.368-.252.666-.593.867-.991q.307-.601.307-1.404v-.308q0-.789-.307-1.378a2.65 2.65 0 0 0-.867-.99 3.8 3.8 0 0 0-1.293-.575 6.5 6.5 0 0 0-1.601-.187 6.7 6.7 0 0 0-1.628.187q-.734.188-1.293.575a2.7 2.7 0 0 0-.854.99q-.293.59-.293 1.378v.308q0 .803.293 1.404c.199.396.492.736.854.99q.56.388 1.293.576a6.7 6.7 0 0 0 1.628.187M1.558 25H0V0h24.927v25h-1.558Z"/><path fill="#FFF" d="m6.232 7.813 1.437-.418 4.795 7.609 4.794-7.609 1.437.418v9.375h-1.558v-6.677l-4.015 6.373h-1.317L7.79 10.511v6.677H6.232Z"/></svg>