<svg xmlns="http://www.w3.org/2000/svg" width="124" height="16" fill="none"><path fill="#6A6C6A" d="M123.845 15.769h-4.362V.232h4.362zm-10.187 0h-4.362V.232h4.362zm8.076-5.844h-11.301V6.006h11.301Zm-25.506 5.844h-4.502L97.133.233h6.335l5.383 15.536h-4.78l-2.459-7.699-1.23-4.058h-.325L98.781 8.07zm9.537-2.992h-10.79V8.975h10.79Zm-24.568 2.992h-4.363V.232h4.664l4.34 6.98 1.021 1.901h.301l-.232-1.901V.233h4.34v15.536h-4.641l-4.108-6.47-1.253-2.203h-.301l.232 2.203Zm-16.39 0h-4.362V.232h4.664l4.339 6.98 1.021 1.901h.302l-.232-1.901V.233h4.339v15.536h-4.641l-4.107-6.47-1.253-2.203h-.302l.232 2.203Zm-17.43 0h-4.502L48.282.232h6.335L60 15.769h-4.78L52.76 8.07l-1.23-4.058h-.324L49.929 8.07zm9.537-2.992h-10.79V8.975h10.79Zm-17.291 2.992h-6.011L28.298.233h4.92l3.295 10.666h.302L40.04.233h4.92zm-21.853 0h-4.501L18.675.233h6.335l5.384 15.536h-4.78l-2.46-7.699-1.23-4.058h-.325L20.323 8.07zm9.538-2.992H16.517V8.975h10.791ZM6.985 16q-2.228 0-3.713-.649-1.485-.673-2.228-1.855-.742-1.206-.742-2.829v-.302h4.293v.186q0 .626.208.974.21.324.743.44.557.116 1.601.116 1.23 0 1.601-.208.395-.21.395-.719 0-.372-.116-.58-.093-.208-.372-.325-.278-.14-.812-.208l-3.388-.534q-1.578-.255-2.575-.858Q.905 8.023.441 7.096 0 6.145 0 4.939q0-1.39.719-2.504.72-1.113 2.205-1.762Q4.409 0 6.683 0q2.181 0 3.597.673 1.415.648 2.112 1.808.696 1.137.696 2.597v.395H8.795v-.279q0-.463-.209-.742-.186-.278-.696-.394-.512-.14-1.485-.139-1.23 0-1.648.208-.417.21-.418.65a.66.66 0 0 0 .116.394.9.9 0 0 0 .372.278q.278.093.719.186l3.388.603q1.647.278 2.645.95 1.021.65 1.462 1.6.465.951.465 2.157a4.9 4.9 0 0 1-.674 2.504q-.65 1.16-2.088 1.855Q9.328 16 6.985 16"/></svg>