<svg xmlns="http://www.w3.org/2000/svg" width="83" height="20" fill="none"><path fill="#6A6C6A" d="M42.193 3.111a24.5 24.5 0 0 0-4.192 3.099 109 109 0 0 0-3.836 3.593 71 71 0 0 0-2.096 2.11l-2.051 2.156q-.556.651-1.16 1.257-.602.608-1.159 1.258a19 19 0 0 0 1.828-.539q.843-.285 1.695-.539.722-.149 1.427-.36a14 14 0 0 1 1.516-.359 6.6 6.6 0 0 1 1.517-.179 3.4 3.4 0 0 1 1.471.224q.847.315 1.026 1.078.133.494-.089.943.745-.22 1.471-.494.758-.27 1.428-.494l2.586-.808q1.291-.449 2.632-.719.356-.09.847-.09.535-.045.936.09a.96.96 0 0 1 .58.494q.224.315.045.943a1.3 1.3 0 0 1-.536.674 3.8 3.8 0 0 1-.936.359q-.531.133-1.07.225a4.7 4.7 0 0 0-.848.134 89 89 0 0 0-2.988.943l-2.943.899q-.82.241-1.65.449-.892.269-1.695.09a1.7 1.7 0 0 1-.669-.27q-.758-.583-.714-1.078.045-.493.402-.988h-.535q-1.606.27-3.211.674-1.327.37-2.632.808c-.865.3-1.763.496-2.675.584q-.49.045-.981-.18-.491-.18-.714-.763a1.3 1.3 0 0 1 0-.943c.122-.334.287-.652.491-.943a28 28 0 0 1-2.453 1.302q-1.115.494-1.695.719-1.244.528-2.497 1.032a6.5 6.5 0 0 1-2.676.494q-1.472-.089-1.784-.808t.134-1.796q.4-1.123 1.293-2.38a31 31 0 0 1 1.873-2.47 46 46 0 0 1 1.873-2.021q.848-.898 1.115-1.167l.624-.629h-2.542q-1.248 0-2.542.045-2.586.09-5.128.269-2.587.135-5.174.405-.936.134-1.828.269a14 14 0 0 0-1.873.314q-.223.045-.491.135a.7.7 0 0 1-.49 0q-.491-.18-.446-.629 0-.494.446-.628a58.4 58.4 0 0 1 11.015-1.752q5.59-.4 11.194-.494 1.16-1.077 2.319-2.11 1.172-1.044 2.364-2.066a29 29 0 0 0 1.338-1.347q.803-.853 1.605-1.078.446-.135.758.045.358.135.535.494.18.314.134.718-.044.405-.356.719a216 216 0 0 0-2.721 2.335 64 64 0 0 0-2.631 2.335q.669 0 1.249.18.535.135.936.449.447.314.624.943.135.539-.133.943c-.173.235-.403.42-.669.539q-.402.135-.848.045-.4-.135-.624-.584a5.5 5.5 0 0 0-1.338-.314 8 8 0 0 0-1.427-.135l-.446.404a406 406 0 0 0-3.88 3.772q-2.007 2.021-3.166 4.356a24 24 0 0 0 3.211-.898 43 43 0 0 0 3.255-1.302 62 62 0 0 0 3.167-1.527 38 38 0 0 0 2.899-1.751 123 123 0 0 1 3.434-3.413 92 92 0 0 1 3.612-3.279 72 72 0 0 1 2.275-1.931 32 32 0 0 1 2.363-1.751 2.4 2.4 0 0 1 1.071-.449q.624-.135 1.025.494.224.404.09.898-.09.449-.491.719Z"/><path fill="#6A6C6A" d="M68.278 16.628c-.692.062-1.379.182-2.051.36q-.981.224-2.007.449a442 442 0 0 1-5.307 1.212 52 52 0 0 1-5.352.809q-.756.093-1.516.134a9 9 0 0 1-1.561-.044 6.3 6.3 0 0 1-1.472-.36 3.7 3.7 0 0 1-1.293-.718 2.9 2.9 0 0 1-.758-.943 2.6 2.6 0 0 1-.357-1.123 2.4 2.4 0 0 1 .089-1.123q.178-.583.669-1.033.312-.314.981-.494a8 8 0 0 1 1.561-.314q.846-.09 1.695-.045.847.045 1.472.315.624.269.847.763.268.45-.045 1.167a1.54 1.54 0 0 1-.802.764q-.536.224-1.204.314-.692.045-1.383 0a31 31 0 0 1-1.249-.179q.178.179.714.314.535.09 1.115.135.557.042 1.115.045h.669c1.453-.12 2.898-.33 4.326-.629q2.168-.445 4.325-.943 1.562-.36 3.078-.719a23 23 0 0 1 3.121-.583q.67-.045 1.115.314.447.359.58.853.134.45-.134.854-.222.403-.981.448"/><path fill="#6A6C6A" d="M81.739 16.628q-2.275.045-4.638.135a17.2 17.2 0 0 1-4.639-.539.8.8 0 0 1-.356-.09 5.6 5.6 0 0 1-.803 1.483c-.317.438-.692.83-1.115 1.167-.41.326-.88.57-1.383.718q-.713.225-1.427.046-.669-.18-.981-.674a2.13 2.13 0 0 1-.401-1.123q-.045-.628.178-1.257.178-.629.535-1.123a3.6 3.6 0 0 1 1.472-1.078 2.62 2.62 0 0 1 1.784-.089q.089-.63.713-.988.626-.36 1.338.089c.447.27.927.482 1.427.629a10 10 0 0 0 1.651.225q.847.044 1.65.045.847-.045 1.605-.045.892 0 1.918-.09 1.026-.135 1.873.135.49.179.669.583.222.405.134.809-.045.403-.357.718t-.847.314m-13.335.584q.134-.135.535-.134v-.405q-.088.09-.267.225a.57.57 0 0 0-.268.314"/></svg>