<svg viewBox="0 0 256 83" fill="none" xmlns="http://www.w3.org/2000/svg">
  <path d="M111.455 81.332H128.535L139.73 2.016H122.652L111.455 81.332ZM185.129 55.432C185.129 33.91 155.087 32.748 155.228 23.31C155.275 20.354 158.079 17.18 164.717 16.29C168.04 15.82 175.068 15.54 185.342 20.316L189.023 2.922C183.473 0.902 174.475 0 164.053 0C148.066 0 136.657 8.528 136.561 20.73C136.371 29.742 144.53 34.78 150.697 37.794C157.054 40.89 159.236 42.82 159.189 45.864C159.094 50.478 153.64 52.64 148.541 52.64C140.239 52.64 133.226 50.428 128.01 48.08L124.238 65.752C129.832 68.334 138.835 70.45 148.305 70.45C165.291 70.45 185.129 62.062 185.129 55.432ZM244.603 81.332L256 2.016H242.063C237.91 2.016 234.618 4.222 233.006 8.072L201.277 81.332H219.035C219.035 81.332 222.6 71.558 223.36 69.444H244.978C245.548 72.164 248.082 81.332 248.082 81.332H244.603ZM228.483 55.15C229.811 51.528 235.151 36.884 235.151 36.884C234.82 37.026 238.163 27.674 238.543 25.56L240.536 34.582L244.188 55.15H228.483ZM77.065 2.016L55.432 56.136L52.545 41.59C49.99 32.096 42.235 22.88 28.536 17.652L33.09 81.332H50.846L85.679 2.016H77.065ZM0 2.016H26.353C33.722 2.016 39.544 3.018 43.193 6.136C45.378 7.974 46.52 10.36 46.711 12.658C46.996 16.942 45.419 25.86 38.38 31.968L36.885 24.238C34.425 15.064 22.384 10.748 11.233 10.748H3.88L0 2.016Z" fill="#fff"/>
</svg>