<svg xmlns="http://www.w3.org/2000/svg" width="76" height="76" fill="none"><rect width="74.681" height="74.68" x=".661" y=".66" fill="#fff" rx="15.174"/><rect width="74.681" height="74.68" x=".661" y=".66" stroke="#E4E2E2" stroke-width="1.319" rx="15.174"/><path fill="url(#a)" d="M38 19.625c-10.135 0-18.375 8.24-18.375 18.375S27.865 56.375 38 56.375 56.375 48.135 56.375 38 48.135 19.625 38 19.625"/><path fill="#fff" d="M43.933 37.923c-2.523 0-4.567 2.074-4.567 4.632 0 2.559 2.044 4.633 4.567 4.633 2.522 0 4.567-2.075 4.567-4.633s-2.045-4.632-4.567-4.632m-11.866 0c-2.522 0-4.567 2.074-4.567 4.632 0 2.559 2.045 4.633 4.567 4.633s4.568-2.075 4.568-4.633-2.045-4.632-4.568-4.632m10.5-5.79c0 2.558-2.045 4.632-4.567 4.632s-4.567-2.074-4.567-4.633c0-2.558 2.045-4.632 4.567-4.632s4.567 2.074 4.567 4.632Z"/><defs><radialGradient id="a" cx="0" cy="0" r="1" gradientTransform="translate(38 39.71)scale(24.3518)" gradientUnits="userSpaceOnUse"><stop stop-color="#FFB900"/><stop offset=".6" stop-color="#F95D8F"/><stop offset=".999" stop-color="#F95353"/></radialGradient></defs></svg>