<svg xmlns="http://www.w3.org/2000/svg" width="76" height="76" fill="none"><rect width="74.681" height="74.68" x=".66" y=".66" fill="#fff" rx="15.174"/><rect width="74.681" height="74.68" x=".66" y=".66" stroke="#E4E2E2" stroke-width="1.319" rx="15.174"/><path fill="url(#a)" fill-rule="evenodd" d="M23.392 46.297c-.325.553-.691 1.195-1.002 1.706-.278.49-.129 1.12.336 1.419l6.515 4.173a.97.97 0 0 0 .766.125c.261-.066.485-.24.623-.48.26-.454.596-1.043.962-1.674 2.581-4.434 5.178-3.892 9.859-1.565l6.46 3.197a.97.97 0 0 0 .78.036c.255-.098.46-.3.569-.557l3.102-7.303c.22-.522-.004-1.13-.501-1.367a771 771 0 0 1-6.516-3.223c-8.781-4.44-16.244-4.152-21.953 5.513" clip-rule="evenodd"/><path fill="url(#b)" fill-rule="evenodd" d="M52.608 29.725c.326-.553.692-1.194 1.002-1.705.278-.49.13-1.12-.336-1.42l-6.515-4.172a.97.97 0 0 0-.786-.151 1 1 0 0 0-.643.495c-.26.454-.596 1.044-.962 1.675-2.581 4.433-5.178 3.89-9.859 1.565l-6.44-3.182a.97.97 0 0 0-.78-.036 1.02 1.02 0 0 0-.569.557l-3.102 7.303c-.22.521.004 1.13.501 1.366 1.363.668 4.075 1.998 6.516 3.224 8.801 4.434 16.264 4.136 21.973-5.519" clip-rule="evenodd"/><defs><linearGradient id="a" x1="52.187" x2="44.387" y1="55.749" y2="38.556" gradientUnits="userSpaceOnUse"><stop offset=".18" stop-color="#0052CC"/><stop offset="1" stop-color="#2684FF"/></linearGradient><linearGradient id="b" x1="23.813" x2="31.625" y1="20.268" y2="37.469" gradientUnits="userSpaceOnUse"><stop offset=".18" stop-color="#0052CC"/><stop offset="1" stop-color="#2684FF"/></linearGradient></defs></svg>