<svg xmlns="http://www.w3.org/2000/svg" width="76" height="76" fill="none"><rect width="74.681" height="74.68" x=".662" y=".66" fill="#fff" rx="15.174"/><rect width="74.681" height="74.68" x=".662" y=".66" stroke="#E4E2E2" stroke-width="1.319" rx="15.174"/><g clip-path="url(#a)"><path fill="#00832D" d="M40.428 37.782 44.03 41.9l4.843 3.095.843-7.186-.843-7.023-4.936 2.718-3.509 4.28Z"/><path fill="#0066DA" d="M19.528 44.326v6.123a2.534 2.534 0 0 0 2.533 2.533h6.124l1.268-4.626-1.268-4.03-4.201-1.268z"/><path fill="#E94235" d="m28.185 22.583-8.657 8.657 4.456 1.265 4.2-1.265 1.246-3.975z"/><path fill="#2684FC" d="M19.528 44.328h8.657V31.239h-8.657z"/><path fill="#00AC47" d="m54.402 26.248-5.53 4.537v14.209l5.553 4.554c.832.652 2.048.058 2.048-.998V27.227c0-1.069-1.245-1.66-2.07-.979Z"/><path fill="#00AC47" d="M40.429 37.782v6.543H28.185v8.657h18.156a2.534 2.534 0 0 0 2.533-2.533v-5.455z"/><path fill="#FFBA00" d="M46.34 22.583H28.186v8.657H40.43v6.543l8.445-6.998v-5.669a2.534 2.534 0 0 0-2.533-2.533Z"/></g><defs><clipPath id="a"><path fill="#fff" d="M19.53 22.583h36.945v30.45H19.53z"/></clipPath></defs></svg>