<svg xmlns="http://www.w3.org/2000/svg" width="76" height="76" fill="none"><rect width="74.417" height="74.417" x=".792" y=".792" fill="#fff" rx="15.042"/><rect width="74.417" height="74.417" x=".792" y=".792" stroke="#E4E2E2" stroke-width="1.583" rx="15.042"/><path fill="url(#a)" d="M19.625 30.19c0-3.737 0-5.605.739-7.028a6.56 6.56 0 0 1 2.798-2.798c1.423-.739 3.291-.739 7.029-.739h15.618c3.738 0 5.606 0 7.029.739a6.56 6.56 0 0 1 2.798 2.798c.739 1.423.739 3.291.739 7.029v15.618c0 3.738 0 5.606-.739 7.029a6.56 6.56 0 0 1-2.798 2.798c-1.423.739-3.291.739-7.029.739H30.191c-3.738 0-5.606 0-7.029-.739a6.56 6.56 0 0 1-2.798-2.798c-.739-1.423-.739-3.291-.739-7.029z"/><path fill="#F2F3F8" d="m36.19 48.754-8.944-8.944a10.91 10.91 0 0 0 8.944 8.944m-9.077-11.361 11.494 11.494a11 11 0 0 0 1.99-.294l-13.19-13.19a11 11 0 0 0-.294 1.99m.869-3.702L42.31 48.02a11 11 0 0 0 1.497-.787L28.77 32.195q-.451.714-.788 1.496m1.756-2.809a10.88 10.88 0 0 1 8.26-3.786c6.022 0 10.904 4.882 10.904 10.904a10.88 10.88 0 0 1-3.786 8.26z"/><defs><linearGradient id="a" x1="19.625" x2="56.375" y1="56.375" y2="19.625" gradientUnits="userSpaceOnUse"><stop stop-color="#29359B"/><stop offset="1" stop-color="#6068CA"/></linearGradient></defs></svg>