<svg xmlns="http://www.w3.org/2000/svg" width="76" height="76" fill="none"><rect width="74.681" height="74.68" x=".661" y=".66" fill="#fff" rx="15.174"/><rect width="74.681" height="74.68" x=".661" y=".66" stroke="#E4E2E2" stroke-width="1.319" rx="15.174"/><path fill="#625DF5" d="M56.375 36.077H45.18l9.695-5.598-1.922-3.332-9.697 5.598 5.597-9.696-3.331-1.923-5.598 9.693V19.625h-3.848V30.82l-5.597-9.694-3.332 1.923 5.596 9.693-9.694-5.595-1.924 3.332 9.695 5.598H19.625v3.848H30.82l-9.694 5.598 1.923 3.332 9.696-5.598-5.597 9.695 3.33 1.924 5.6-9.695v11.194h3.847V44.941l5.7 9.873 3.124-1.803-5.701-9.876 9.903 5.718 1.924-3.331-9.694-5.599h11.194zM38 43.23a5.23 5.23 0 0 1-4.833-7.234A5.23 5.23 0 0 1 38 32.767a5.23 5.23 0 0 1 5.23 5.231A5.233 5.233 0 0 1 38 43.231Z"/></svg>