<svg xmlns="http://www.w3.org/2000/svg" width="76" height="76" fill="none"><rect width="74.681" height="74.68" x=".66" y=".66" fill="#fff" rx="15.174"/><rect width="74.681" height="74.68" x=".66" y=".66" stroke="#E4E2E2" stroke-width="1.319" rx="15.174"/><path fill="#FDDD4C" d="M38 19.625c-10.135 0-18.375 8.24-18.375 18.375S27.865 56.375 38 56.375 56.375 48.135 56.375 38 48.135 19.625 38 19.625"/><path fill="#000" d="M29.953 42.79c-.402-.608.608-1.528.197-2.301-.237-.446-.624-.724-1.089-.782a1.41 1.41 0 0 0-1.2.427c-.462.503-.534 1.189-.445 1.431.033.09.085.114.122.119.252.033.393-.614.48-.749.241-.371.787-.483 1.165-.24.715.463.095 1.211.148 1.843.052.615.436.862.78.888.334.013.568-.173.627-.309.142-.324-.455.174-.785-.326ZM44.9 37.207a2.4 2.4 0 0 0-.606 0c-.162-.204-.307-.535-.389-.922-.145-.687-.13-1.185.276-1.25s.604.352.75 1.039c.097.462.078.886-.03 1.133Zm-4.453.409c.016.156.022.313.017.458.394.023.672.21.747.329.038.06.022.1.01.119-.04.063-.128.054-.31.033a3 3 0 0 0-.511-.025c-.097.298-.386.326-.588.105-.142.043-.42.22-.503.028 0-.096.1-.235.28-.358a2.7 2.7 0 0 1-.255-.75 6 6 0 0 0-.67.174c-.084.027-.421.179-.46.008-.027-.119.157-.314.352-.455.218-.154.46-.264.71-.328-.006-.373.09-.633.36-.676.336-.053.544.206.688.684.406.113.811.393.99.682.07.112.083.198.038.244-.112.116-.735-.221-.895-.272m2.668 1.675c.258.125.541.076.633-.11.093-.185-.041-.436-.298-.56-.258-.126-.541-.077-.634.109-.092.185.042.437.3.561Zm1.268-.921c.004-.283.178-.51.387-.506s.374.236.37.52c-.005.282-.179.509-.388.505-.208-.003-.374-.235-.37-.518Z"/><path fill="#000" fill-rule="evenodd" d="M50.047 41.843c.004.015-.002-.006 0 0 .419 0 1.078.476 1.078 1.626 0 1.144-.481 2.44-.595 2.727-1.732 4.098-5.867 6.38-10.791 6.235-4.592-.134-8.507-2.526-10.221-6.425-1.036.002-2.105-.448-2.917-1.159-.855-.748-1.383-1.717-1.486-2.727-.08-.786.017-1.518.267-2.156l-.962-.805c-4.404-3.67 9.37-18.784 13.776-14.99.022.018 1.499 1.448 1.502 1.452 2.124-.89 7.816-2.586 7.822 1.36.003 1.31-.843 2.839-2.199 4.225 1.567 1.434 1.154 3.471 1.403 5.34l.544.15c1.037.286 1.775.67 2.136 1.044.361.373.54.735.605 1.16.06.342.053.947-.405 1.623.165.436.315.871.443 1.32m-20.607 3.1q.232.006.456-.032c1.61-.27 2.031-1.996 1.766-3.69-.3-1.914-1.61-2.588-2.5-2.636a2.8 2.8 0 0 0-.667.047c-1.589.316-2.486 1.65-2.309 3.382.16 1.568 1.766 2.89 3.254 2.93Zm-3.597-5.841c.533-.764 1.404-1.317 2.392-1.507 1.259-3.334 3.36-6.407 6.142-8.52 2.064-1.7 4.29-2.92 4.29-2.92s-1.199-1.372-1.561-1.473c-2.227-.593-7.038 2.681-10.11 7.008-1.242 1.75-3.02 4.85-2.17 6.445.104.197.698.705 1.017.967M43.9 44.177a.09.09 0 0 1-.05.087s-1.79.821-4.633-.047c.102.852 1.135 1.175 1.857 1.292 3.523.598 6.816-1.39 7.557-1.89.128-.087-.001.135-.024.167-.908 1.155-3.347 2.493-6.521 2.493-1.384 0-2.768-.482-3.276-1.222-.788-1.147-.039-2.822 1.274-2.648 2.22.248 4.496.062 6.552-.88 1.792-.821 2.469-1.724 2.367-2.456-.158-1.134-1.84-1.311-2.69-1.587-.369-.12-.551-.217-.593-.904-.018-.3-.07-1.345-.09-1.778-.034-.757-.126-1.793-.777-2.22a1.1 1.1 0 0 0-.556-.175 1 1 0 0 0-.33.031c-.352.06-.567.237-.82.447l-.045.036c-.811.668-1.496.777-2.259.745a13 13 0 0 1-.74-.06c-.238-.022-.486-.046-.751-.062l-.324-.018c-1.276-.065-2.645 1.023-2.873 2.569-.254 1.724.71 2.781 1.337 3.468.155.17.29.317.38.446.058.078.125.188.125.293 0 .124-.082.223-.162.307-1.302 1.322-1.719 3.423-1.228 5.173q.093.327.231.627c1.151 2.656 4.724 3.893 8.213 2.768 2.445-.788 4.606-2.694 5.046-5.322.105-.685-.05-.95-.259-1.077-.221-.135-.487-.088-.487-.088s-.121-.818-.464-1.562c-1.017.792-2.327 1.349-3.324 1.631-1.597.453-3.322.629-4.973.415-.67-.086-1.119-.144-1.312.474 2.202.796 4.532.455 4.532.455a.08.08 0 0 1 .09.072m-6.352-15.442c-1.204.608-2.548 1.69-3.64 2.936-.039.045.019.106.066.072.943-.678 2.236-1.307 3.93-1.715 1.897-.457 3.724-.265 4.84-.012.056.012.09-.083.04-.11-.736-.41-1.868-.686-2.67-.692a.048.048 0 0 1-.038-.077c.138-.184.328-.366.502-.498.039-.03.015-.091-.034-.089-.998.06-3.279 1.1-3.27 1.063.058-.277.242-.643.337-.814.023-.04-.021-.085-.063-.064" clip-rule="evenodd"/></svg>