<svg xmlns="http://www.w3.org/2000/svg" width="76" height="76" fill="none"><rect width="74.681" height="74.68" x=".661" y=".66" fill="#fff" rx="15.174"/><rect width="74.681" height="74.68" x=".661" y=".66" stroke="#E4E2E2" stroke-width="1.319" rx="15.174"/><path fill="#2EB67D" d="M51.781 36.687a3.281 3.281 0 0 0 0-6.562 3.28 3.28 0 0 0-3.281 3.282v3.28zm-9.188 0a3.28 3.28 0 0 0 3.282-3.28v-9.188a3.281 3.281 0 0 0-6.563 0v9.187a3.28 3.28 0 0 0 3.282 3.281Z"/><path fill="#E01E5A" d="M24.218 39.313a3.281 3.281 0 0 0 0 6.562 3.28 3.28 0 0 0 3.282-3.282v-3.28zm9.188 0a3.28 3.28 0 0 0-3.281 3.28v9.188a3.281 3.281 0 0 0 6.563 0v-9.187a3.28 3.28 0 0 0-3.282-3.281"/><path fill="#ECB22E" d="M39.313 51.782a3.281 3.281 0 0 0 6.562 0 3.28 3.28 0 0 0-3.282-3.282h-3.28zm0-9.188a3.28 3.28 0 0 0 3.28 3.281h9.188a3.281 3.281 0 0 0 0-6.563h-9.187a3.28 3.28 0 0 0-3.281 3.282"/><path fill="#36C5F0" d="M36.687 24.218a3.281 3.281 0 0 0-6.562 0 3.28 3.28 0 0 0 3.281 3.282h3.28zm0 9.188a3.28 3.28 0 0 0-3.281-3.281h-9.187a3.281 3.281 0 0 0 0 6.563h9.187a3.28 3.28 0 0 0 3.28-3.282Z"/></svg>