<svg xmlns="http://www.w3.org/2000/svg" width="76" height="76" fill="none"><rect width="74.681" height="74.68" x=".662" y=".66" fill="#fff" rx="15.174"/><rect width="74.681" height="74.68" x=".662" y=".66" stroke="#E4E2E2" stroke-width="1.319" rx="15.174"/><path fill="url(#a)" d="M19.625 32.225c0-4.41 0-6.616.859-8.3a7.88 7.88 0 0 1 3.441-3.442c1.685-.858 3.89-.858 8.3-.858h11.55c4.41 0 6.616 0 8.3.858a7.88 7.88 0 0 1 3.442 3.442c.858 1.684.858 3.89.858 8.3v11.55c0 4.41 0 6.616-.858 8.3a7.88 7.88 0 0 1-3.441 3.442c-1.685.858-3.89.858-8.3.858h-11.55c-4.41 0-6.616 0-8.3-.858a7.88 7.88 0 0 1-3.442-3.442c-.859-1.684-.859-3.89-.859-8.3z"/><path fill="#fff" fill-rule="evenodd" d="M29.134 31.018c0-1.04.844-1.884 1.884-1.884 8.702 0 15.757 7.055 15.757 15.757a1.93 1.93 0 0 1-1.93 1.93h-4.87a1.93 1.93 0 0 1-1.929-1.93 7.03 7.03 0 0 0-7.028-7.029 1.883 1.883 0 0 1-1.884-1.883z" clip-rule="evenodd"/><defs><linearGradient id="a" x1="56.376" x2="19.625" y1="56.375" y2="19.625" gradientUnits="userSpaceOnUse"><stop stop-color="#3D35DE"/><stop offset=".265" stop-color="#5137E8"/><stop offset="1" stop-color="#793CF8"/></linearGradient></defs></svg>