<svg xmlns="http://www.w3.org/2000/svg" width="76" height="76" fill="none"><rect width="74.681" height="74.68" x=".661" y=".66" fill="#fff" rx="15.174"/><rect width="74.681" height="74.68" x=".661" y=".66" stroke="#E4E2E2" stroke-width="1.319" rx="15.174"/><path fill="#FF4A00" d="M43.879 43.887a11.1 11.1 0 0 1-7.781 0c-.94-2.49-.94-5.283-.001-7.774a11.1 11.1 0 0 1 7.782 0 11.08 11.08 0 0 1 0 7.774m14.24-6.95H47.388l7.588-7.584a18.5 18.5 0 0 0-4.334-4.33l-7.59 7.583V21.881a18.5 18.5 0 0 0-6.127 0v10.725l-7.59-7.584A18.5 18.5 0 0 0 25 29.353l7.59 7.584H21.857c-.265 2.085-.35 4.045 0 6.125H32.59L25 50.647a18.5 18.5 0 0 0 4.334 4.331l7.59-7.585V58.12c2.025.339 4.102.34 6.128 0V47.393l7.59 7.585a18.5 18.5 0 0 0 4.333-4.331l-7.59-7.585H58.12a18.5 18.5 0 0 0 0-6.125Z"/></svg>