<svg xmlns="http://www.w3.org/2000/svg" width="466" height="178" fill="none"><rect width="464.5" height="91.5" x=".75" y="1.25" fill="#fff" rx="16.75"/><rect width="464.5" height="91.5" x=".75" y="1.25" stroke="#E4E2E2" stroke-width="1.5" rx="16.75"/><rect width="49" height="49" x="54" y="22.5" fill="#614A44" rx="24.5"/><rect width="49" height="49" x="54" y="22.5" stroke="#fff" stroke-width="3" rx="24.5"/><path stroke="#fff" stroke-linecap="round" stroke-linejoin="round" stroke-width="2" d="m86.5 41-11 11-5-5"/><rect width="49" height="49" x="98" y="22.5" fill="#757170" rx="24.5"/><rect width="49" height="49" x="98" y="22.5" stroke="#fff" stroke-width="3" rx="24.5"/><rect width="49" height="49" x="142" y="22.5" fill="#F6C701" rx="24.5"/><rect width="49" height="49" x="142" y="22.5" stroke="#fff" stroke-width="3" rx="24.5"/><rect width="49" height="49" x="186" y="22.5" fill="#FB7F00" rx="24.5"/><rect width="49" height="49" x="186" y="22.5" stroke="#fff" stroke-width="3" rx="24.5"/><rect width="49" height="49" x="230" y="22.5" fill="#00A82D" rx="24.5"/><rect width="49" height="49" x="230" y="22.5" stroke="#fff" stroke-width="3" rx="24.5"/><rect width="49" height="49" x="274" y="22.5" fill="#3286FB" rx="24.5"/><rect width="49" height="49" x="274" y="22.5" stroke="#fff" stroke-width="3" rx="24.5"/><rect width="49" height="49" x="318" y="22.5" fill="#F1EBE5" rx="24.5"/><rect width="49" height="49" x="318" y="22.5" stroke="#fff" stroke-width="3" rx="24.5"/><path stroke="#453F3D" stroke-linecap="round" stroke-linejoin="round" stroke-width="1.5" d="M342.5 57a7 7 0 0 0 7-7c0-2-1-3.9-3-5.5s-3.5-4-4-6.5c-.5 2.5-2 4.9-4 6.5s-3 3.5-3 5.5a7 7 0 0 0 7 7"/><rect width="49" height="49" x="362" y="22.5" fill="#F1EBE5" rx="24.5"/><rect width="49" height="49" x="362" y="22.5" stroke="#fff" stroke-width="3" rx="24.5"/><path stroke="#453F3D" stroke-linecap="round" stroke-linejoin="round" stroke-width="1.5" d="M393.215 48.186c-.425-1.328-1.331-2.579-2.715-3.686-2-1.6-3.5-4-4-6.5-.183.896-.48 1.765-.884 2.586M376.5 37l20 20m-13.205-13.203a11 11 0 0 1-.795.703c-2 1.6-3 3.5-3 5.5a7.002 7.002 0 0 0 9.908 6.368 7 7 0 0 0 3.314-3.16"/><rect width="328.5" height="61.5" x=".75" y="115.25" fill="#fff" rx="16.75"/><rect width="328.5" height="61.5" x=".75" y="115.25" stroke="#E4E2E2" stroke-width="1.5" rx="16.75"/><rect width="53" height="26" x="18.5" y="131.5" fill="#EAF3ED" rx="12"/><rect width="53" height="26" x="18.5" y="131.5" stroke="#00A82D" stroke-width="2" rx="12"/><rect width="20" height="20" x="48.5" y="134.5" fill="#00A82D" rx="10"/><path fill="#1C1C1C" d="M87.362 150.425v-11.941c0-.37.204-.575.575-.575h.434c.371 0 .576.205.576.575v5.255h6.98v-5.255c0-.37.204-.575.575-.575h.435c.37 0 .575.205.575.575v11.941c0 .37-.204.575-.575.575h-.435c-.37 0-.575-.205-.575-.575v-5.28h-6.98v5.28c0 .37-.205.575-.576.575h-.434c-.37 0-.575-.205-.575-.575m13.886-10.88c-.588 0-1.074-.46-1.074-1.022s.486-1.023 1.074-1.023 1.074.46 1.074 1.023-.486 1.022-1.074 1.022m-.767 10.88v-8.668c0-.371.205-.575.576-.575h.358c.37 0 .575.204.575.575v8.668c0 .37-.205.575-.575.575h-.358c-.371 0-.576-.205-.576-.575m7.979.78c-2.454 0-4.167-1.969-4.167-5.089 0-3.093 1.713-5.062 4.193-5.062 1.917 0 2.505 1.176 2.838 1.687h.128v-4.257c0-.37.204-.575.575-.575h.358c.371 0 .575.205.575.575v11.941c0 .37-.204.575-.575.575h-.307c-.371 0-.575-.205-.575-.575v-.934h-.179c-.333.537-.972 1.714-2.864 1.714m.205-1.356c1.815 0 2.812-1.534 2.812-3.758 0-2.199-.971-3.682-2.812-3.682-1.918 0-2.864 1.611-2.864 3.682 0 2.097.972 3.758 2.864 3.758m11.384 1.356c-2.838 0-4.577-2.02-4.577-5.037s1.764-5.114 4.424-5.114c2.045 0 4.218 1.253 4.218 4.909v.064c0 .371-.204.575-.575.575h-6.552c.07 2.103 1.291 3.247 3.062 3.247.984 0 1.764-.351 2.218-1.061.192-.306.409-.428.741-.332l.365.102c.371.103.543.339.409.62-.595 1.228-1.95 2.027-3.733 2.027m-3.062-5.907h5.593c0-1.662-1.048-2.889-2.684-2.889-1.726 0-2.807 1.362-2.909 2.889M135.716 151h-3.465c-.37 0-.575-.205-.575-.575v-11.941c0-.37.205-.575.575-.575h3.644c3.809 0 6.059 2.455 6.059 6.52 0 4.091-2.25 6.571-6.238 6.571m-2.455-1.406h2.353c3.247 0 4.806-1.969 4.806-5.165 0-3.17-1.559-5.114-4.627-5.114h-2.532zm11.148.831v-8.668c0-.371.205-.575.575-.575h.307c.371 0 .575.204.575.575v.908h.103c.358-.972 1.38-1.637 2.556-1.637h.231c.37.013.562.224.562.588v.352c0 .39-.166.582-.454.543a6 6 0 0 0-.466-.025c-1.432 0-2.48.971-2.48 2.301v5.638c0 .37-.205.575-.576.575h-.358c-.37 0-.575-.205-.575-.575m10.515.78c-2.838 0-4.577-2.02-4.577-5.037s1.764-5.114 4.424-5.114c2.045 0 4.218 1.253 4.218 4.909v.064c0 .371-.204.575-.575.575h-6.552c.07 2.103 1.291 3.247 3.062 3.247.984 0 1.764-.351 2.218-1.061.192-.306.409-.428.741-.332l.365.102c.371.103.543.339.409.62-.595 1.228-1.95 2.027-3.733 2.027m-3.062-5.907h5.593c0-1.662-1.048-2.889-2.684-2.889-1.726 0-2.807 1.362-2.909 2.889m13.538 5.907c-2.838 0-4.576-2.02-4.576-5.037s1.764-5.114 4.423-5.114c2.046 0 4.219 1.253 4.219 4.909v.064c0 .371-.205.575-.575.575h-6.552c.07 2.103 1.291 3.247 3.061 3.247.985 0 1.765-.351 2.219-1.061.191-.306.409-.428.741-.332l.364.102c.371.103.544.339.409.62-.594 1.228-1.949 2.027-3.733 2.027m-3.061-5.907h5.593c0-1.662-1.049-2.889-2.685-2.889-1.726 0-2.806 1.362-2.908 2.889m10.93-6.814v11.941c0 .37-.204.575-.575.575h-.358c-.371 0-.575-.205-.575-.575v-11.941c0-.37.204-.575.575-.575h.358c.371 0 .575.205.575.575m3.53 1.061c-.588 0-1.074-.46-1.074-1.022s.486-1.023 1.074-1.023 1.074.46 1.074 1.023-.486 1.022-1.074 1.022m-.767 10.88v-8.668c0-.371.205-.575.575-.575h.358c.371 0 .576.204.576.575v8.668c0 .37-.205.575-.576.575h-.358c-.37 0-.575-.205-.575-.575m8.26.78c-2.659 0-4.449-2.02-4.449-5.063 0-3.068 1.79-5.088 4.449-5.088s4.449 2.02 4.449 5.088c0 3.043-1.79 5.063-4.449 5.063m0-1.356c2.02 0 2.941-1.738 2.941-3.707s-.921-3.733-2.941-3.733-2.94 1.764-2.94 3.733.92 3.707 2.94 3.707m12.019.576v-11.941c0-.37.204-.575.575-.575h.358c.371 0 .575.205.575.575v4.257h.128c.333-.511.921-1.687 2.838-1.687 2.48 0 4.193 1.969 4.193 5.062 0 3.12-1.713 5.089-4.167 5.089-1.892 0-2.531-1.177-2.864-1.714h-.179v.934c0 .37-.204.575-.575.575h-.307c-.371 0-.575-.205-.575-.575m1.483-4.334c0 2.224.997 3.758 2.812 3.758 1.892 0 2.864-1.661 2.864-3.758 0-2.071-.946-3.682-2.864-3.682-1.841 0-2.812 1.483-2.812 3.682m9.492 4.334v-8.668c0-.371.205-.575.575-.575h.307c.371 0 .575.204.575.575v.908h.103c.358-.972 1.38-1.637 2.556-1.637h.231c.37.013.562.224.562.588v.352c0 .39-.166.582-.454.543a6 6 0 0 0-.466-.025c-1.432 0-2.481.971-2.481 2.301v5.638c0 .37-.204.575-.575.575h-.358c-.37 0-.575-.205-.575-.575m9.586.805c-1.866 0-3.349-1.099-3.349-3.017 0-2.25 1.988-2.653 3.81-2.889 1.789-.23 2.531-.166 2.531-.895v-.051c0-1.259-.684-1.994-2.071-1.994-1.144 0-1.873.485-2.288 1.041-.211.282-.429.384-.761.263l-.352-.128c-.37-.128-.511-.416-.294-.761.85-1.342 2.327-1.745 3.644-1.745 1.253 0 3.63.358 3.63 3.477v5.894c0 .37-.204.575-.575.575h-.358c-.371 0-.575-.205-.575-.575v-.755h-.077c-.307.64-1.202 1.56-2.915 1.56m.231-1.355c1.789 0 2.761-1.202 2.761-2.429v-1.381c-.256.307-1.969.486-2.608.563-1.176.153-2.224.511-2.224 1.662 0 1.048.869 1.585 2.071 1.585m8.531-4.781v5.331c0 .37-.204.575-.575.575h-.358c-.371 0-.575-.205-.575-.575v-8.668c0-.371.204-.575.575-.575h.307c.371 0 .575.204.575.575v.959h.128c.46-.997 1.381-1.662 2.864-1.662 1.988 0 3.324 1.202 3.324 3.707v5.664c0 .37-.205.575-.576.575h-.358c-.37 0-.575-.205-.575-.575v-5.561c0-1.541-.85-2.455-2.25-2.455-1.445 0-2.506.972-2.506 2.685m12.728 6.111c-2.454 0-4.167-1.969-4.167-5.089 0-3.093 1.713-5.062 4.193-5.062 1.918 0 2.506 1.176 2.838 1.687h.128v-4.257c0-.37.205-.575.575-.575h.358c.371 0 .575.205.575.575v11.941c0 .37-.204.575-.575.575h-.307c-.37 0-.575-.205-.575-.575v-.934h-.179c-.332.537-.971 1.714-2.864 1.714m.205-1.356c1.815 0 2.813-1.534 2.813-3.758 0-2.199-.972-3.682-2.813-3.682-1.918 0-2.864 1.611-2.864 3.682 0 2.097.972 3.758 2.864 3.758m8.035-10.304c-.588 0-1.074-.46-1.074-1.022s.486-1.023 1.074-1.023 1.074.46 1.074 1.023-.486 1.022-1.074 1.022m-.767 10.88v-8.668c0-.371.204-.575.575-.575h.358c.371 0 .575.204.575.575v8.668c0 .37-.204.575-.575.575h-.358c-.371 0-.575-.205-.575-.575m5.78-5.331v5.331c0 .37-.205.575-.575.575h-.358c-.371 0-.576-.205-.576-.575v-8.668c0-.371.205-.575.576-.575h.306c.371 0 .576.204.576.575v.959h.127c.461-.997 1.381-1.662 2.864-1.662 1.988 0 3.324 1.202 3.324 3.707v5.664c0 .37-.205.575-.575.575h-.358c-.371 0-.576-.205-.576-.575v-5.561c0-1.541-.85-2.455-2.25-2.455-1.444 0-2.505.972-2.505 2.685m12.984 9.792c-1.854 0-3.005-.671-3.689-1.502-.236-.294-.159-.588.141-.799l.275-.192c.3-.21.562-.159.799.122.428.498 1.119 1.042 2.474 1.042 1.585 0 2.735-.742 2.735-2.378v-1.994h-.127c-.333.537-.946 1.662-2.864 1.662-2.378 0-4.168-1.739-4.168-4.807 0-3.017 1.713-4.986 4.194-4.986 1.917 0 2.531 1.176 2.863 1.687h.154v-.984c0-.371.204-.575.575-.575h.307c.37 0 .575.204.575.575v9.524c0 2.531-1.892 3.605-4.244 3.605m-.052-5.395c1.816 0 2.813-1.303 2.813-3.477 0-2.122-.972-3.605-2.813-3.605-1.917 0-2.863 1.611-2.863 3.605 0 2.046.971 3.477 2.863 3.477"/><rect width="113.5" height="61.5" x="351.75" y="115.25" fill="#fff" rx="16.75"/><rect width="113.5" height="61.5" x="351.75" y="115.25" stroke="#E4E2E2" stroke-width="1.5" rx="16.75"/><rect width="51.5" height="43.5" x="359.75" y="124.25" fill="#F4F1EE" rx="8.75"/><rect width="51.5" height="43.5" x="359.75" y="124.25" stroke="#E4E2E2" stroke-width="1.5" rx="8.75"/><path stroke="#453F3D" stroke-linecap="round" stroke-linejoin="round" stroke-width="1.5" d="M375.53 146.42c.36 5.15 4.73 9.34 9.96 9.57 3.69.16 6.99-1.56 8.97-4.27.82-1.11.38-1.85-.99-1.6-.67.12-1.36.17-2.08.14-4.89-.2-8.89-4.29-8.91-9.12-.01-1.3.26-2.53.75-3.65.54-1.24-.11-1.83-1.36-1.3-3.96 1.67-6.67 5.66-6.34 10.23m59.97 6.08a6.5 6.5 0 1 0 0-13 6.5 6.5 0 0 0 0 13"/><path stroke="#453F3D" stroke-linecap="round" stroke-linejoin="round" stroke-width="2" d="m442.64 153.14-.13-.13m0-14.02.13-.13zm-14.15 14.15.13-.13zm7.14-17.06V136zm0 19.92v-.08zm-9.92-10h-.08zm19.92 0h-.08zm-17.01-7.01-.13-.13z"/></svg>